D:\school\WTK\thesis\model\3dpredictsim\Results\batch_windlass\Pog_s1_tmt_aCst_d05_k500_WL10_ig24_act_TTC_GRF.mot
nRows=20
nColumns=19

name D:\school\WTK\thesis\model\3dpredictsim\Results\batch_windlass\Pog_s1_tmt_aCst_d05_k500_WL10_ig24_act_TTC_GRF.mot
datacolumns 19
datarows 20
range 0.0000000000 0.2244532341
endheader
time 	ground_force_vx	ground_force_vy	ground_force_vz	ground_force_px	ground_force_py	ground_force_pz	1_ground_force_vx	1_ground_force_vy	1_ground_force_vz	1_ground_force_px	1_ground_force_py	1_ground_force_pz	ground_torque_x	ground_torque_y	ground_torque_z	1_ground_torque_x	1_ground_torque_y	1_ground_torque_z
        0.0000000000	      -42.6350771445	       30.7552936966	        7.2590469297	        0.1528661512	        0.0000000000	        0.0647921168	       94.6736217865	      403.2109628393	        1.0419315939	       -0.3670525079	        0.0000000000	       -0.0311601088	        0.0000000000	        0.0000000000	        0.0000000000	        0.0000000000	        0.0000000000	        0.0000000000	
        0.0118133281	      -99.2844770821	       87.2890356363	       21.7831804866	        0.1652855658	        0.0000000000	        0.0632341788	       64.3594283032	      301.9871183367	       -6.0067526933	       -0.3580504608	        0.0000000000	       -0.0267310518	        0.0000000000	        0.0000000000	        0.0000000000	        0.0000000000	        0.0000000000	        0.0000000000	
        0.0236266562	     -114.2984558084	      257.7805518911	       34.0801737229	        0.1836020170	        0.0000000000	        0.0639361947	       39.0034924672	      220.2519131913	      -17.7389178788	       -0.3471185694	        0.0000000000	       -0.0211113397	        0.0000000000	        0.0000000000	        0.0000000000	        0.0000000000	        0.0000000000	        0.0000000000	
        0.0354399843	      -85.2166531552	      592.3916889806	       -7.9337000624	        0.1944020027	        0.0000000000	        0.0641171744	       30.1783714744	      184.3807636805	      -19.1891527464	       -0.3462720660	        0.0000000000	       -0.0206002831	        0.0000000000	        0.0000000000	        0.0000000000	        0.0000000000	        0.0000000000	        0.0000000000	
        0.0472533124	     -127.1209775969	      854.0979313426	      -26.6880194325	        0.2058837111	        0.0000000000	        0.0630972472	       23.8534234299	      134.9771465693	      -17.6808926396	       -0.3460125774	        0.0000000000	       -0.0206161006	        0.0000000000	        0.0000000000	        0.0000000000	        0.0000000000	        0.0000000000	        0.0000000000	
        0.0590666405	     -161.3358442399	      979.9122558646	      -27.1657719139	        0.2178286839	        0.0000000000	        0.0610460446	        4.4561523180	       75.4652672045	      -16.2593373200	       -0.3468543971	        0.0000000000	       -0.0209976992	        0.0000000000	        0.0000000000	        0.0000000000	        0.0000000000	        0.0000000000	        0.0000000000	
        0.0708799687	     -162.3623493486	      958.6227759031	      -22.9270835163	        0.2246978475	        0.0000000000	        0.0595320052	       -6.5998001591	       11.9181212384	       -2.6561919250	       -0.3505896016	        0.0000000000	       -0.0202616052	        0.0000000000	        0.0000000000	        0.0000000000	        0.0000000000	        0.0000000000	        0.0000000000	
        0.0826932968	     -136.8255200902	      878.3817227446	      -21.1377017668	        0.2280078484	        0.0000000000	        0.0587151833	       -2.5934054238	        2.1527333763	        0.1449871328	        0.0000000000	        0.0000000000	        0.0000000000	        0.0000000000	        0.0000000000	        0.0000000000	        0.0000000000	        0.0000000000	        0.0000000000	
        0.0945066249	     -118.3709178652	      805.2450974508	      -19.2202527427	        0.2312987737	        0.0000000000	        0.0581434960	       -8.4973108243	        6.1107041285	        0.6089956521	        0.0000000000	        0.0000000000	        0.0000000000	        0.0000000000	        0.0000000000	        0.0000000000	        0.0000000000	        0.0000000000	        0.0000000000	
        0.1063199530	     -103.5980271159	      756.5219062426	      -19.2386154415	        0.2344762314	        0.0000000000	        0.0577129341	       -7.1066013951	        4.5013624084	        0.5607172428	        0.0000000000	        0.0000000000	        0.0000000000	        0.0000000000	        0.0000000000	        0.0000000000	        0.0000000000	        0.0000000000	        0.0000000000	
        0.1181332811	      -90.5460319025	      721.2594563341	      -20.6215528354	        0.2374955454	        0.0000000000	        0.0573893818	       -5.1959805107	        2.9985630489	        0.4304463120	        0.0000000000	        0.0000000000	        0.0000000000	        0.0000000000	        0.0000000000	        0.0000000000	        0.0000000000	        0.0000000000	        0.0000000000	
        0.1299466092	      -77.8792600456	      691.4115155404	      -21.6629130850	        0.2410249964	        0.0000000000	        0.0570753120	       -3.5238566504	        1.8781576169	        0.3140729428	        0.0000000000	        0.0000000000	        0.0000000000	        0.0000000000	        0.0000000000	        0.0000000000	        0.0000000000	        0.0000000000	        0.0000000000	
        0.1417599373	      -67.0658012490	      667.5782282353	      -21.8924824133	        0.2457142993	        0.0000000000	        0.0566410098	       -2.8630345455	        1.4446512200	        0.2515645688	        0.0000000000	        0.0000000000	        0.0000000000	        0.0000000000	        0.0000000000	        0.0000000000	        0.0000000000	        0.0000000000	        0.0000000000	
        0.1535732654	      -58.9551986237	      648.3830193374	      -22.4063556446	        0.2512214135	        0.0000000000	        0.0560569421	       -2.1607413916	        1.0475130990	        0.1878981352	        0.0000000000	        0.0000000000	        0.0000000000	        0.0000000000	        0.0000000000	        0.0000000000	        0.0000000000	        0.0000000000	        0.0000000000	
        0.1653865935	      -52.1793157602	      633.0721615762	      -22.8490392451	        0.2572631845	        0.0000000000	        0.0553594724	       -1.5621378068	        0.7336931065	        0.1336253490	        0.0000000000	        0.0000000000	        0.0000000000	        0.0000000000	        0.0000000000	        0.0000000000	        0.0000000000	        0.0000000000	        0.0000000000	
        0.1771999216	      -46.8947927234	      620.0817401932	      -22.8426513212	        0.2634655724	        0.0000000000	        0.0545988059	       -1.1590611122	        0.5308348711	        0.0972653905	        0.0000000000	        0.0000000000	        0.0000000000	        0.0000000000	        0.0000000000	        0.0000000000	        0.0000000000	        0.0000000000	        0.0000000000	
        0.1890132497	      -42.0336878296	      608.7544741670	      -22.5354503105	        0.2696014655	        0.0000000000	        0.0538168349	       -0.9027230496	        0.4049546808	        0.0735164202	        0.0000000000	        0.0000000000	        0.0000000000	        0.0000000000	        0.0000000000	        0.0000000000	        0.0000000000	        0.0000000000	        0.0000000000	
        0.2008265779	      -37.4572321734	      598.9248475725	      -21.7979409294	        0.2756734036	        0.0000000000	        0.0530155137	       -0.7433560352	        0.3275549753	        0.0580724048	        0.0000000000	        0.0000000000	        0.0000000000	        0.0000000000	        0.0000000000	        0.0000000000	        0.0000000000	        0.0000000000	        0.0000000000	
        0.2126399060	      -33.4563053055	      590.4168997201	      -20.7649017354	        0.2815081069	        0.0000000000	        0.0522203664	       -0.6552944142	        0.2839802593	        0.0483645541	        0.0000000000	        0.0000000000	        0.0000000000	        0.0000000000	        0.0000000000	        0.0000000000	        0.0000000000	        0.0000000000	        0.0000000000	
        0.2244532341	      -29.5955703427	      582.7196749944	      -19.5807538087	        0.2870223971	        0.0000000000	        0.0514507331	       -0.6226803004	        0.2654730931	        0.0427447018	        0.0000000000	        0.0000000000	        0.0000000000	        0.0000000000	        0.0000000000	        0.0000000000	        0.0000000000	        0.0000000000	        0.0000000000	
